HIERARCHY
ROOT hip
{
	OFFSET 0.000000 0.000000 0.000000 
	CHANNELS 6 Xposition Yposition Zposition Xrotation Zrotation Yrotation
	JOINT abdomen
	{
		OFFSET 0.000000 3.402643 0.000000 
		CHANNELS 3 Xrotation Zrotation Yrotation
		JOINT chest
		{
			OFFSET 0.000000 8.438565 -0.680529 
			CHANNELS 3 Xrotation Zrotation Yrotation
			JOINT neck
			{
				OFFSET 0.000000 10.207942 -0.272212 
				CHANNELS 3 Xrotation Zrotation Yrotation
				JOINT head
				{
					OFFSET 0.000000 3.130431 0.000000 
					CHANNELS 3 Xrotation Zrotation Yrotation
					End Site
					{
						OFFSET 0.000000 3.130435 0.000000 
					}
				}
			}
			JOINT lCollar
			{
				OFFSET 3.470700 6.669187 -0.816635 
				CHANNELS 3 Yrotation Zrotation Xrotation
				JOINT lShldr
				{
					OFFSET 3.198488 0.000000 0.000000 
					CHANNELS 3 Zrotation Yrotation Xrotation
					JOINT lForeArm
					{
						OFFSET 10.139888 0.000000 0.000000 
						CHANNELS 3 Yrotation Zrotation Xrotation
						JOINT lHand
						{
							OFFSET 8.370511 0.000000 0.000000 
							CHANNELS 3 Zrotation Yrotation Xrotation
							End Site
							{
								OFFSET 4.083176 0.000000 0.000000 
							}
						}
					}
				}
			}
			JOINT rCollar
			{
				OFFSET -3.470700 6.669187 -0.816635 
				CHANNELS 3 Yrotation Zrotation Xrotation
				JOINT rShldr
				{
					OFFSET -3.198488 0.000000 0.000000 
					CHANNELS 3 Zrotation Yrotation Xrotation
					JOINT rForeArm
					{
						OFFSET -10.139888 0.000000 0.000000 
						CHANNELS 3 Yrotation Zrotation Xrotation
						JOINT rHand
						{
							OFFSET -8.370511 0.000000 0.000000 
							CHANNELS 3 Zrotation Yrotation Xrotation
							End Site
							{
								OFFSET -4.083176 0.000000 0.000000 
							}
						}
					}
				}
			}
		}
	}
	JOINT lThigh
	{
		OFFSET 5.308129 -1.633274 1.361059 
		CHANNELS 3 Xrotation Zrotation Yrotation
		JOINT lShin
		{
			OFFSET -2.041588 -20.007561 0.000000 
			CHANNELS 3 Xrotation Zrotation Yrotation
			JOINT lFoot
			{
				OFFSET 0.000000 -19.190928 -1.224953 
				CHANNELS 3 Xrotation Yrotation Zrotation
				End Site
				{
					OFFSET 0.000000 -2.449906 4.627600 
				}
			}
		}
	}
	JOINT rThigh
	{
		OFFSET -5.308129 -1.633274 1.361059 
		CHANNELS 3 Xrotation Zrotation Yrotation
		JOINT rShin
		{
			OFFSET 2.041588 -20.007561 0.000000 
			CHANNELS 3 Xrotation Zrotation Yrotation
			JOINT rFoot
			{
				OFFSET 0.000000 -19.190928 -1.224953 
				CHANNELS 3 Xrotation Yrotation Zrotation
				End Site
				{
					OFFSET 0.000000 -2.449906 4.627600 
				}
			}
		}
	}
}
MOTION
Frames: 16
Frame Time: 0.016667
-0.105478 48.900684 -0.829299 -15.734242 -1.703361 4.650444 0.000000 0.000000 0.000000 14.631170 3.085424 -1.046035 18.191725 0.281849 5.605545 -16.695869 -0.747186 6.455546 -8.806561 -10.347555 12.917557 -56.668045 -14.537354 56.562119 -17.749552 9.343435 4.771049 -4.035940 -2.011576 3.311315 6.257969 13.358871 12.317070 52.698746 19.451860 66.589981 24.408806 -12.674844 8.839275 13.442776 6.415252 21.634548 5.067226 18.080154 -5.663692 17.121572 -0.849837 -0.621125 -2.868421 -1.505276 -1.731976 14.654888 5.818722 -2.096749 10.366562 -0.146688 0.277257 -10.213715 -9.787798 -2.800550 
-0.110102 48.905354 -0.851201 -15.825496 -1.752077 4.630918 0.000000 0.000000 0.000000 14.727397 3.134234 -1.055779 18.172403 0.291640 5.459063 -16.816786 -0.795902 6.328733 -8.807443 -10.326610 13.013869 -56.690117 -14.654743 56.747875 -17.548731 9.339044 4.746799 -3.967258 -2.062974 3.478350 6.216830 13.414069 12.409115 52.695610 19.584892 66.589699 24.388288 -12.668075 8.840492 13.503585 6.839216 22.252010 5.166142 18.142971 -5.675741 17.053537 -0.849843 -0.608227 -2.789677 -1.510846 -1.743303 14.793401 5.887815 -1.928271 10.141198 -0.156391 0.287751 -10.040677 -9.970887 -2.819711 
-0.103428 48.906082 -0.874259 -15.894946 -1.761787 4.640677 0.000000 0.000000 0.000000 14.785275 3.143988 -1.065529 18.124552 0.301356 5.468828 -16.914715 -0.795872 6.348262 -8.808706 -10.328250 13.070457 -56.656178 -14.714663 56.675400 -17.618902 9.340261 4.755870 -4.009676 -2.039017 4.084677 6.183744 13.416280 12.468579 52.664974 19.727961 66.354767 24.522261 -12.666157 8.860707 13.978917 6.337909 22.976124 5.214652 18.131348 -5.795211 17.063299 -0.850014 -0.608701 -2.761960 -1.438664 -1.755511 14.888264 5.896503 -1.845393 10.083013 -0.156418 0.275844 -9.979896 -10.038324 -2.812654 
-0.096757 48.906807 -0.897297 -15.974163 -1.771496 4.650438 0.000000 0.000000 0.000000 14.843147 3.153742 -1.075815 18.086422 0.311078 5.468882 -17.012640 -0.795841 6.367792 -8.819546 -10.332098 13.128410 -56.627739 -14.766374 56.605343 -17.699577 9.350395 4.763098 -4.041832 -2.004791 4.699706 6.158074 13.430042 12.530046 52.629333 19.858334 66.120819 24.654215 -12.668213 8.870028 14.437243 5.841315 23.684397 5.253888 18.122402 -5.912374 17.053061 -0.859791 -0.609518 -2.732996 -1.387131 -1.765627 14.988976 5.917158 -1.760079 10.024081 -0.156434 0.283426 -9.898443 -10.114747 -2.798841 
-0.090057 48.906662 -0.922646 -16.013714 -1.781254 4.640675 0.000000 0.000000 0.000000 14.871907 3.153732 -1.085566 18.040678 0.340213 5.517713 -17.088301 -0.766637 6.426249 -8.822077 -10.340288 13.167756 -56.577560 -14.790901 56.472488 -17.830227 9.353526 4.778247 -4.102723 -1.971648 5.541283 6.139340 13.440638 12.560916 52.600201 19.970472 65.980415 24.788586 -12.652369 8.898712 14.644392 5.352347 24.130896 5.292819 18.111477 -5.959941 17.053167 -0.850015 -0.617982 -2.708331 -1.317019 -1.757877 15.007251 5.907134 -1.690591 10.015041 -0.158138 0.263458 -9.859021 -10.128628 -2.790854 
-0.083357 48.906517 -0.947975 -16.053568 -1.790988 4.640674 0.000000 0.000000 0.000000 14.910431 3.153722 -1.095317 18.003799 0.359624 5.566541 -17.154007 -0.737454 6.475076 -8.826869 -10.338980 13.207096 -56.533180 -14.807199 56.339458 -17.950357 9.347652 4.795185 -4.163831 -1.936435 6.392188 6.120466 13.442726 12.601231 52.561695 20.078691 65.834343 24.931965 -12.648693 8.918013 14.857388 4.865330 24.577011 5.302113 18.100161 -6.029902 17.053068 -0.859614 -0.609496 -2.660712 -1.241758 -1.758067 15.011303 5.904586 -1.611061 10.006430 -0.156454 0.233982 -9.819846 -10.178465 -2.767822 
-0.081040 48.907654 -0.972651 -16.073753 -1.810529 4.611389 0.000000 0.000000 0.000000 14.939190 3.153711 -1.105067 17.977543 0.388764 5.595839 -17.218437 -0.698586 6.514138 -8.821587 -10.343472 13.235578 -56.503204 -14.808068 56.242714 -18.061617 9.352243 4.810745 -4.190689 -1.931617 7.273254 6.103912 13.443757 12.629833 52.537472 20.114311 65.893433 24.992393 -12.645509 8.922868 14.652205 4.741941 24.695841 5.293135 18.122488 -5.985679 17.023535 -0.856709 -0.617494 -2.611861 -1.187961 -1.756506 14.973504 5.914959 -1.475867 9.996048 -0.148351 0.253678 -9.763716 -10.241319 -2.792083 
-0.078725 48.908783 -0.997328 -16.084154 -1.830073 4.582415 0.000000 0.000000 0.000000 14.958184 3.153701 -1.114819 17.960194 0.408174 5.634970 -17.274279 -0.669413 6.562849 -8.823591 -10.359688 13.265428 -56.464931 -14.812490 56.135330 -18.161663 9.360620 4.817364 -4.208707 -1.927803 8.153625 6.096948 13.446870 12.660436 52.507030 20.166683 65.946915 25.052816 -12.642309 8.927706 14.442474 4.610840 24.813059 5.272691 18.127905 -5.949674 17.023026 -0.859733 -0.627619 -2.555039 -1.119261 -1.727723 14.935653 5.925311 -1.340696 9.975926 -0.138552 0.273127 -9.699182 -10.325292 -2.783872 
-0.078342 48.911510 -1.016876 -16.075462 -1.859377 4.543372 0.000000 0.000000 0.000000 14.987481 3.153701 -1.114818 17.952492 0.427597 5.654504 -17.300446 -0.640283 6.582383 -8.820063 -10.362682 13.284413 -56.446594 -14.793438 56.061863 -18.222134 9.362465 4.824986 -4.218361 -1.950405 8.957400 6.092303 13.448944 12.681595 52.489307 20.169285 66.089638 25.084795 -12.643458 8.934434 14.074691 4.710312 24.751608 5.262664 18.149117 -5.858552 16.993824 -0.849907 -0.634723 -2.508956 -1.081548 -1.722231 14.901224 5.946518 -1.173811 9.928034 -0.127107 0.252622 -9.641363 -10.372030 -2.811126 
-0.077960 48.914230 -1.036402 -16.056196 -1.878949 4.504330 0.000000 0.000000 0.000000 15.016239 3.153690 -1.124570 17.936005 0.456736 5.674036 -17.336357 -0.611155 6.601914 -8.814767 -10.367174 13.314650 -56.414303 -14.786041 55.972778 -18.280243 9.357624 4.823448 -4.229476 -1.973100 9.761455 6.075749 13.449949 12.710199 52.479465 20.177145 66.243401 25.114790 -12.648746 8.932528 13.716380 4.802794 24.699402 5.233243 18.176947 -5.788296 16.975004 -0.849903 -0.614351 -2.451169 -1.060787 -1.723479 14.859109 5.965034 -1.027285 9.879343 -0.118839 0.251377 -9.602729 -10.417810 -2.829087 
-0.075502 48.918137 -1.050002 -16.036905 -1.898521 4.465289 0.000000 0.000000 0.000000 15.035771 3.153690 -1.124569 17.945766 0.456736 5.674036 -17.343878 -0.591753 6.601915 -8.820277 -10.380401 13.323754 -56.401905 -14.758884 55.901665 -18.301973 9.362675 4.833670 -4.224946 -2.013485 10.350305 6.073318 13.442490 12.731360 52.471870 20.197104 66.372551 25.126253 -12.643144 8.940519 13.445129 4.936514 24.628908 5.214763 18.191521 -5.738957 16.954155 -0.869394 -0.625695 -2.379972 -0.971631 -1.707575 14.826478 5.973390 -0.940683 9.820751 -0.148175 0.237450 -9.523650 -10.450119 -2.793436 
-0.073043 48.922031 -1.063581 -16.017160 -1.908333 4.436008 0.000000 0.000000 0.000000 15.055494 3.143927 -1.124570 17.945766 0.456736 5.674036 -17.362385 -0.582041 6.611580 -8.814450 -10.392898 13.344500 -56.389664 -14.731732 55.830479 -18.322870 9.357988 4.842301 -4.219842 -2.044596 10.938788 6.070891 13.435031 12.750251 52.471134 20.200493 66.507179 25.126253 -12.643144 8.940519 13.183319 5.063395 24.568058 5.175990 18.212637 -5.697278 16.953527 -0.889238 -0.618517 -2.313560 -0.940617 -1.673065 14.782064 5.984863 -0.855847 9.752890 -0.166098 0.214221 -9.454679 -10.450307 -2.775603 
-0.066558 48.927101 -1.075120 -15.987861 -1.908333 4.436008 0.000000 0.000000 0.000000 15.074536 3.114614 -1.144074 17.955458 0.456743 5.664271 -17.379763 -0.562628 6.621349 -8.827223 -10.417862 13.354982 -56.376160 -14.712731 55.751507 -18.343075 9.366101 4.841784 -4.210960 -2.076509 11.233614 6.053738 13.404297 12.769689 52.486496 20.242107 66.557831 25.126253 -12.643144 8.940519 13.061578 5.169888 24.575535 5.135599 18.194044 -5.695292 16.933641 -0.888892 -0.627298 -2.228109 -0.868499 -1.674601 14.777949 5.973384 -0.877844 9.684145 -0.146416 0.232518 -9.415417 -10.439155 -2.787770 
-0.060074 48.932159 -1.086639 -15.958565 -1.908333 4.436008 0.000000 0.000000 0.000000 15.083838 3.085302 -1.163578 17.954342 0.447041 5.644740 -17.397041 -0.543227 6.621350 -8.837692 -10.452334 13.365468 -56.357128 -14.701799 55.672474 -18.362442 9.364481 4.841266 -4.211734 -2.107333 11.519032 6.034386 13.383077 12.789128 52.497864 20.292677 66.608398 25.126253 -12.643144 8.940519 12.943881 5.285189 24.584322 5.107673 18.192560 -5.705385 16.914440 -0.889199 -0.616690 -2.183055 -0.819003 -1.643574 14.784390 5.966483 -0.918519 9.615054 -0.148083 0.249371 -9.364778 -10.420079 -2.771895 
-0.048504 48.938816 -1.100659 -15.918958 -1.888785 4.465289 0.000000 0.000000 0.000000 15.092114 3.055968 -1.202587 17.944269 0.447071 5.605679 -17.404556 -0.523827 6.621352 -8.867278 -10.491281 13.373397 -56.334152 -14.694457 55.577503 -18.381807 9.362863 4.840747 -4.198782 -2.102594 11.478753 5.998107 13.348082 12.806857 52.526730 20.332306 66.615532 25.114790 -12.648746 8.932528 12.877876 5.324028 24.647633 5.019383 18.130354 -5.832063 16.913944 -0.898948 -0.617790 -2.084069 -0.735937 -1.630133 14.792891 5.926805 -1.072868 9.556736 -0.156294 0.236919 -9.322013 -10.364668 -2.720031 
-0.036936 48.945461 -1.114679 -15.879330 -1.869238 4.494570 0.000000 0.000000 0.000000 15.100945 3.026645 -1.231846 17.943966 0.447100 5.566618 -17.421835 -0.504426 6.621266 -8.896851 -10.530236 13.383096 -56.305641 -14.695148 55.479961 -18.403542 9.367892 4.849371 -4.174683 -2.089514 11.447584 5.966379 13.302526 12.817391 52.549259 20.388659 66.617126 25.094276 -12.642005 8.933799 12.806211 5.378023 24.703024 4.941585 18.084955 -5.940276 16.893900 -0.908713 -0.618130 -2.010763 -0.662215 -1.578734 14.802054 5.887419 -1.237031 9.498007 -0.166132 0.234115 -9.280128 -10.278172 -2.707136 
